<svg id="svg" version="1.1" width="400" height="400" viewBox="0 0 400 400" xmlns="http://www.w3.org/2000/svg" xmlns:xlink="http://www.w3.org/1999/xlink" >
<g id="svgg">

<path id="path0" d="M114.000 123.199 C 75.685 128.249,50.125 164.821,54.593 208.200 C 59.006 251.049,81.250 274.787,119.200 277.148 C 154.304 279.332,180.485 262.434,187.602 233.000 C 187.868 231.900,188.168 230.685,188.270 230.300 C 188.442 229.645,187.686 229.600,176.455 229.600 L 164.457 229.600 163.800 231.900 C 159.427 247.223,145.868 255.795,126.000 255.799 C 97.573 255.803,80.618 239.248,79.914 210.800 L 79.800 206.200 135.200 206.000 L 190.600 205.800 190.542 199.200 C 190.224 163.268,171.324 133.370,143.796 125.250 C 136.787 123.183,121.897 122.158,114.000 123.199 M201.200 123.163 C 201.200 123.368,202.518 125.305,204.128 127.468 C 205.739 129.631,209.821 135.180,213.200 139.800 C 216.579 144.420,220.809 150.180,222.601 152.600 C 226.756 158.211,244.846 182.825,250.324 190.321 L 254.505 196.043 253.321 197.721 C 250.068 202.334,211.236 256.800,204.516 266.174 C 198.999 273.871,196.937 277.040,197.297 277.268 C 198.186 277.833,226.555 277.674,227.273 277.100 C 227.617 276.825,232.730 269.400,238.636 260.600 C 244.542 251.800,252.768 239.560,256.918 233.400 C 261.067 227.240,265.663 220.360,267.131 218.112 C 268.631 215.814,270.042 214.063,270.353 214.112 C 270.927 214.203,272.084 215.881,291.380 244.600 C 311.677 274.808,312.892 276.591,313.528 277.100 C 314.251 277.679,344.216 277.831,345.115 277.261 C 345.596 276.956,344.613 275.360,340.196 269.274 C 338.410 266.814,324.556 247.487,318.208 238.600 C 314.280 233.100,310.403 227.700,309.593 226.600 C 308.222 224.738,305.194 220.525,291.652 201.629 C 288.746 197.575,286.457 194.028,286.565 193.748 C 286.746 193.275,293.394 184.342,326.323 140.321 C 333.185 131.147,338.800 123.452,338.800 123.221 C 338.800 122.733,309.684 122.622,308.961 123.106 C 308.720 123.268,307.174 125.290,305.526 127.600 C 303.878 129.910,295.375 141.845,286.631 154.122 C 277.887 166.399,270.535 176.378,270.294 176.298 C 270.052 176.217,267.382 172.562,264.359 168.176 C 261.336 163.789,257.904 158.810,256.731 157.110 C 255.559 155.411,253.278 152.081,251.663 149.710 C 250.048 147.340,245.277 140.360,241.061 134.200 L 233.395 123.000 217.297 122.895 C 207.548 122.832,201.200 122.938,201.200 123.163 M133.000 145.403 C 150.219 149.897,163.743 166.131,164.487 183.200 L 164.600 185.800 122.300 185.902 L 80.000 186.004 80.004 184.102 C 80.038 166.306,96.141 147.695,114.000 144.812 C 115.650 144.546,117.270 144.262,117.600 144.181 C 119.687 143.671,129.282 144.432,133.000 145.403 " stroke="none" fill-rule="evenodd">
</path>

<path id="path1" d="M193.200 0.736 C 193.200 0.921,189.205 1.193,184.322 1.340 C 179.438 1.486,175.343 1.762,175.222 1.953 C 175.100 2.143,172.885 2.429,170.300 2.589 C 167.715 2.748,165.600 3.041,165.600 3.239 C 165.600 3.438,164.700 3.600,163.600 3.600 C 162.500 3.600,161.600 3.761,161.600 3.958 C 161.600 4.155,160.160 4.444,158.400 4.600 C 156.640 4.756,155.200 5.030,155.200 5.210 C 155.200 5.389,154.030 5.662,152.600 5.815 C 151.170 5.968,150.000 6.252,150.000 6.447 C 150.000 6.641,149.460 6.800,148.800 6.800 C 148.140 6.800,147.600 6.957,147.600 7.148 C 147.600 7.340,146.520 7.619,145.200 7.768 C 143.880 7.918,142.800 8.190,142.800 8.374 C 142.800 8.557,141.810 8.832,140.600 8.983 C 139.390 9.134,138.400 9.425,138.400 9.629 C 138.400 9.833,137.950 10.000,137.400 10.000 C 136.850 10.000,136.400 10.160,136.400 10.355 C 136.400 10.550,135.590 10.831,134.600 10.979 C 133.610 11.128,132.800 11.418,132.800 11.625 C 132.800 11.831,132.350 12.000,131.800 12.000 C 131.250 12.000,130.800 12.164,130.800 12.365 C 130.800 12.566,130.080 12.851,129.200 13.000 C 128.320 13.149,127.600 13.419,127.600 13.600 C 127.600 13.781,126.880 14.051,126.000 14.200 C 125.120 14.349,124.400 14.634,124.400 14.835 C 124.400 15.036,124.040 15.200,123.600 15.200 C 123.160 15.200,122.800 15.364,122.800 15.565 C 122.800 15.766,122.080 16.051,121.200 16.200 C 120.320 16.349,119.600 16.620,119.600 16.803 C 119.600 16.987,119.060 17.255,118.400 17.400 C 117.740 17.545,117.200 17.829,117.200 18.032 C 117.200 18.234,116.750 18.400,116.200 18.400 C 115.650 18.400,115.200 18.566,115.200 18.768 C 115.200 18.971,114.660 19.255,114.000 19.400 C 113.340 19.545,112.800 19.829,112.800 20.032 C 112.800 20.234,112.440 20.400,112.000 20.400 C 111.560 20.400,111.200 20.566,111.200 20.768 C 111.200 20.971,110.660 21.255,110.000 21.400 C 109.340 21.545,108.800 21.810,108.800 21.988 C 108.800 22.167,108.350 22.426,107.800 22.564 C 107.250 22.702,106.800 22.992,106.800 23.208 C 106.800 23.423,106.530 23.600,106.200 23.600 C 105.870 23.600,105.600 23.772,105.600 23.982 C 105.600 24.192,104.970 24.482,104.200 24.626 C 103.430 24.771,102.800 25.049,102.800 25.245 C 102.800 25.440,102.524 25.600,102.187 25.600 C 101.851 25.600,101.471 25.870,101.345 26.200 C 101.218 26.530,100.774 26.800,100.357 26.800 C 99.941 26.800,99.600 26.960,99.600 27.157 C 99.600 27.353,99.150 27.626,98.600 27.764 C 98.050 27.902,97.600 28.178,97.600 28.376 C 97.600 28.574,97.095 28.847,96.478 28.983 C 95.860 29.119,95.101 29.583,94.789 30.015 C 94.478 30.447,93.987 30.800,93.699 30.800 C 93.411 30.800,93.071 31.070,92.945 31.400 C 92.818 31.730,92.393 32.000,92.000 32.000 C 91.607 32.000,91.182 32.270,91.055 32.600 C 90.929 32.930,90.479 33.200,90.055 33.200 C 89.632 33.200,89.182 33.470,89.055 33.800 C 88.929 34.130,88.589 34.400,88.301 34.400 C 88.013 34.400,87.517 34.760,87.200 35.200 C 86.883 35.640,86.391 36.000,86.108 36.000 C 85.824 36.000,85.284 36.360,84.907 36.800 C 84.530 37.240,83.914 37.600,83.538 37.600 C 83.162 37.600,82.740 37.960,82.600 38.399 C 82.461 38.839,81.943 39.299,81.450 39.423 C 80.957 39.547,80.224 40.087,79.821 40.624 C 79.418 41.161,78.835 41.600,78.525 41.600 C 77.929 41.600,76.000 43.479,76.000 44.058 C 76.000 44.246,75.695 44.400,75.323 44.400 C 74.951 44.400,73.975 45.120,73.155 46.000 C 72.334 46.880,71.466 47.600,71.226 47.600 C 70.986 47.600,69.631 48.770,68.215 50.200 C 66.799 51.630,65.491 52.800,65.309 52.800 C 65.127 52.800,64.677 53.115,64.309 53.500 C 63.941 53.885,63.430 54.404,63.172 54.652 C 62.915 54.901,62.192 55.621,61.565 56.252 C 60.938 56.884,60.195 57.616,59.913 57.881 C 59.631 58.145,59.180 58.595,58.911 58.881 C 58.642 59.166,58.216 59.604,57.963 59.852 C 57.110 60.693,55.107 62.702,54.652 63.172 C 54.404 63.430,53.885 63.941,53.500 64.309 C 53.115 64.677,52.800 65.127,52.800 65.309 C 52.800 65.491,51.630 66.799,50.200 68.215 C 48.770 69.631,47.600 70.986,47.600 71.226 C 47.600 71.466,46.880 72.334,46.000 73.155 C 45.120 73.975,44.400 74.951,44.400 75.323 C 44.400 75.695,44.246 76.000,44.058 76.000 C 43.479 76.000,41.600 77.929,41.600 78.525 C 41.600 78.835,41.161 79.418,40.624 79.821 C 40.087 80.224,39.547 80.957,39.423 81.450 C 39.299 81.943,38.839 82.461,38.399 82.600 C 37.960 82.740,37.600 83.162,37.600 83.538 C 37.600 83.914,37.240 84.530,36.800 84.907 C 36.360 85.284,36.000 85.824,36.000 86.108 C 36.000 86.391,35.640 86.883,35.200 87.200 C 34.760 87.517,34.400 88.013,34.400 88.301 C 34.400 88.589,34.130 88.929,33.800 89.055 C 33.470 89.182,33.200 89.632,33.200 90.055 C 33.200 90.479,32.930 90.929,32.600 91.055 C 32.270 91.182,32.000 91.607,32.000 92.000 C 32.000 92.393,31.730 92.818,31.400 92.945 C 31.070 93.071,30.800 93.411,30.800 93.699 C 30.800 93.987,30.447 94.478,30.015 94.789 C 29.583 95.101,29.119 95.860,28.983 96.478 C 28.847 97.095,28.574 97.600,28.376 97.600 C 28.178 97.600,27.902 98.050,27.764 98.600 C 27.626 99.150,27.353 99.600,27.157 99.600 C 26.960 99.600,26.800 99.941,26.800 100.357 C 26.800 100.774,26.530 101.218,26.200 101.345 C 25.870 101.471,25.600 101.851,25.600 102.187 C 25.600 102.524,25.440 102.800,25.245 102.800 C 25.049 102.800,24.771 103.430,24.626 104.200 C 24.482 104.970,24.192 105.600,23.982 105.600 C 23.772 105.600,23.600 105.870,23.600 106.200 C 23.600 106.530,23.423 106.800,23.208 106.800 C 22.992 106.800,22.702 107.250,22.564 107.800 C 22.426 108.350,22.167 108.800,21.988 108.800 C 21.810 108.800,21.545 109.340,21.400 110.000 C 21.255 110.660,20.971 111.200,20.768 111.200 C 20.566 111.200,20.400 111.560,20.400 112.000 C 20.400 112.440,20.234 112.800,20.032 112.800 C 19.829 112.800,19.545 113.340,19.400 114.000 C 19.255 114.660,18.971 115.200,18.768 115.200 C 18.566 115.200,18.400 115.650,18.400 116.200 C 18.400 116.750,18.234 117.200,18.032 117.200 C 17.829 117.200,17.545 117.740,17.400 118.400 C 17.255 119.060,16.987 119.600,16.803 119.600 C 16.620 119.600,16.349 120.320,16.200 121.200 C 16.051 122.080,15.766 122.800,15.565 122.800 C 15.364 122.800,15.200 123.160,15.200 123.600 C 15.200 124.040,15.036 124.400,14.835 124.400 C 14.634 124.400,14.349 125.120,14.200 126.000 C 14.051 126.880,13.781 127.600,13.600 127.600 C 13.419 127.600,13.149 128.320,13.000 129.200 C 12.851 130.080,12.566 130.800,12.365 130.800 C 12.164 130.800,12.000 131.250,12.000 131.800 C 12.000 132.350,11.831 132.800,11.625 132.800 C 11.418 132.800,11.128 133.610,10.979 134.600 C 10.831 135.590,10.550 136.400,10.355 136.400 C 10.160 136.400,10.000 136.850,10.000 137.400 C 10.000 137.950,9.833 138.400,9.629 138.400 C 9.425 138.400,9.134 139.390,8.983 140.600 C 8.832 141.810,8.557 142.800,8.374 142.800 C 8.190 142.800,7.918 143.880,7.768 145.200 C 7.619 146.520,7.340 147.600,7.148 147.600 C 6.957 147.600,6.800 148.140,6.800 148.800 C 6.800 149.460,6.641 150.000,6.447 150.000 C 6.252 150.000,5.968 151.170,5.815 152.600 C 5.662 154.030,5.389 155.200,5.210 155.200 C 5.030 155.200,4.756 156.640,4.600 158.400 C 4.444 160.160,4.155 161.600,3.958 161.600 C 3.761 161.600,3.600 162.500,3.600 163.600 C 3.600 164.700,3.438 165.600,3.239 165.600 C 3.041 165.600,2.748 167.715,2.589 170.300 C 2.429 172.885,2.143 175.100,1.953 175.222 C 1.762 175.343,1.486 179.438,1.340 184.322 C 1.193 189.205,0.921 193.200,0.736 193.200 C 0.551 193.200,0.400 196.260,0.400 200.000 C 0.400 203.740,0.551 206.800,0.736 206.800 C 0.921 206.800,1.193 210.795,1.340 215.678 C 1.486 220.562,1.762 224.657,1.953 224.778 C 2.143 224.900,2.429 227.115,2.589 229.700 C 2.748 232.285,3.041 234.400,3.239 234.400 C 3.438 234.400,3.600 235.300,3.600 236.400 C 3.600 237.500,3.761 238.400,3.958 238.400 C 4.155 238.400,4.444 239.840,4.600 241.600 C 4.756 243.360,5.024 244.800,5.195 244.800 C 5.367 244.800,5.632 245.970,5.785 247.400 C 5.938 248.830,6.229 250.000,6.432 250.000 C 6.634 250.000,6.800 250.540,6.800 251.200 C 6.800 251.860,6.957 252.400,7.148 252.400 C 7.340 252.400,7.619 253.480,7.768 254.800 C 7.918 256.120,8.190 257.200,8.374 257.200 C 8.557 257.200,8.832 258.190,8.983 259.400 C 9.134 260.610,9.425 261.600,9.629 261.600 C 9.833 261.600,10.000 262.050,10.000 262.600 C 10.000 263.150,10.163 263.600,10.362 263.600 C 10.562 263.600,10.849 264.500,11.000 265.600 C 11.151 266.700,11.438 267.600,11.638 267.600 C 11.837 267.600,12.000 267.960,12.000 268.400 C 12.000 268.840,12.164 269.200,12.365 269.200 C 12.566 269.200,12.851 269.920,13.000 270.800 C 13.149 271.680,13.423 272.400,13.611 272.400 C 13.798 272.400,14.072 273.210,14.221 274.200 C 14.369 275.190,14.650 276.000,14.845 276.000 C 15.040 276.000,15.200 276.270,15.200 276.600 C 15.200 276.930,15.357 277.200,15.549 277.200 C 15.741 277.200,16.013 277.920,16.154 278.800 C 16.294 279.680,16.573 280.400,16.773 280.400 C 16.973 280.400,17.255 280.940,17.400 281.600 C 17.545 282.260,17.829 282.800,18.032 282.800 C 18.234 282.800,18.400 283.250,18.400 283.800 C 18.400 284.350,18.572 284.800,18.782 284.800 C 18.992 284.800,19.282 285.430,19.426 286.200 C 19.571 286.970,19.849 287.600,20.045 287.600 C 20.240 287.600,20.400 287.870,20.400 288.200 C 20.400 288.530,20.566 288.800,20.768 288.800 C 20.971 288.800,21.255 289.340,21.400 290.000 C 21.545 290.660,21.810 291.200,21.988 291.200 C 22.167 291.200,22.426 291.650,22.564 292.200 C 22.702 292.750,22.992 293.200,23.208 293.200 C 23.423 293.200,23.600 293.470,23.600 293.800 C 23.600 294.130,23.760 294.400,23.955 294.400 C 24.151 294.400,24.429 295.030,24.574 295.800 C 24.718 296.570,24.987 297.200,25.171 297.200 C 25.356 297.200,25.612 297.515,25.742 297.900 C 25.997 298.660,26.851 300.079,27.246 300.400 C 27.381 300.510,27.619 301.005,27.773 301.500 C 27.928 301.995,28.202 302.400,28.384 302.400 C 28.565 302.400,28.835 302.884,28.983 303.476 C 29.132 304.068,29.576 304.833,29.970 305.176 C 30.363 305.519,30.813 306.205,30.970 306.700 C 31.126 307.195,31.422 307.600,31.627 307.600 C 31.832 307.600,32.000 307.851,32.000 308.157 C 32.000 308.464,32.270 308.818,32.600 308.945 C 32.930 309.071,33.200 309.521,33.200 309.945 C 33.200 310.368,33.470 310.818,33.800 310.945 C 34.130 311.071,34.400 311.411,34.400 311.699 C 34.400 311.987,34.760 312.483,35.200 312.800 C 35.640 313.117,36.000 313.579,36.000 313.827 C 36.000 314.075,36.360 314.693,36.800 315.200 C 37.240 315.707,37.600 316.353,37.600 316.634 C 37.600 316.916,37.960 317.260,38.399 317.400 C 38.839 317.539,39.299 318.057,39.423 318.550 C 39.547 319.043,40.087 319.776,40.624 320.179 C 41.161 320.582,41.600 321.165,41.600 321.475 C 41.600 322.071,43.479 324.000,44.058 324.000 C 44.246 324.000,44.400 324.315,44.401 324.700 C 44.401 325.085,45.121 326.077,46.001 326.905 C 46.880 327.733,47.600 328.590,47.600 328.810 C 47.600 329.030,48.770 330.369,50.200 331.785 C 51.630 333.201,52.800 334.535,52.800 334.749 C 52.800 334.963,53.361 335.671,54.048 336.322 C 55.363 337.568,55.433 337.637,57.235 339.452 C 57.862 340.084,58.605 340.820,58.887 341.089 C 59.169 341.358,59.604 341.784,59.852 342.037 C 60.101 342.289,60.866 343.028,61.552 343.678 C 62.239 344.329,62.800 345.016,62.800 345.204 C 62.800 345.392,63.151 345.657,63.580 345.794 C 64.008 345.930,64.467 346.383,64.600 346.800 C 64.733 347.217,65.226 347.681,65.698 347.831 C 66.169 347.980,67.684 349.250,69.065 350.651 C 70.447 352.053,71.770 353.200,72.007 353.200 C 72.489 353.200,74.400 355.142,74.400 355.631 C 74.400 355.805,74.805 356.073,75.300 356.229 C 75.795 356.384,76.773 357.116,77.473 357.856 C 78.173 358.595,78.911 359.200,79.112 359.200 C 79.313 359.200,79.893 359.560,80.400 360.000 C 80.907 360.440,81.553 360.800,81.834 360.800 C 82.116 360.800,82.457 361.151,82.594 361.580 C 82.730 362.008,83.228 362.482,83.702 362.632 C 84.175 362.783,84.809 363.152,85.110 363.453 C 85.411 363.754,85.872 364.000,86.134 364.000 C 86.396 364.000,86.948 364.450,87.361 365.000 C 87.774 365.550,88.291 366.000,88.509 366.000 C 88.727 366.000,89.197 366.334,89.553 366.743 C 89.909 367.151,90.605 367.613,91.100 367.770 C 91.595 367.926,92.000 368.202,92.000 368.384 C 92.000 368.565,92.450 368.826,93.000 368.964 C 93.550 369.102,94.000 369.392,94.000 369.608 C 94.000 369.823,94.270 370.000,94.600 370.000 C 94.930 370.000,95.200 370.180,95.200 370.400 C 95.200 370.620,95.457 370.800,95.771 370.800 C 96.086 370.800,96.589 371.046,96.890 371.347 C 97.191 371.648,97.879 372.034,98.419 372.204 C 98.958 372.375,99.670 372.823,100.000 373.200 C 100.330 373.577,101.050 374.027,101.600 374.200 C 102.150 374.373,102.881 374.837,103.224 375.230 C 103.567 375.624,104.332 376.068,104.924 376.217 C 105.516 376.365,106.000 376.627,106.000 376.799 C 106.000 376.971,106.630 377.229,107.400 377.374 C 108.170 377.518,108.800 377.808,108.800 378.018 C 108.800 378.228,109.070 378.400,109.400 378.400 C 109.730 378.400,110.000 378.572,110.000 378.782 C 110.000 378.992,110.630 379.282,111.400 379.426 C 112.170 379.571,112.800 379.835,112.800 380.013 C 112.800 380.191,113.340 380.455,114.000 380.600 C 114.660 380.745,115.200 381.029,115.200 381.232 C 115.200 381.434,115.470 381.600,115.800 381.600 C 116.130 381.600,116.400 381.772,116.400 381.982 C 116.400 382.192,117.030 382.482,117.800 382.626 C 118.570 382.771,119.200 383.026,119.200 383.193 C 119.200 383.361,119.920 383.613,120.800 383.754 C 121.680 383.894,122.400 384.187,122.400 384.405 C 122.400 384.622,122.850 384.800,123.400 384.800 C 123.950 384.800,124.400 384.978,124.400 385.195 C 124.400 385.413,125.120 385.706,126.000 385.846 C 126.880 385.987,127.600 386.259,127.600 386.451 C 127.600 386.643,127.870 386.800,128.200 386.800 C 128.530 386.800,128.800 386.963,128.800 387.162 C 128.800 387.362,129.700 387.649,130.800 387.800 C 131.900 387.951,132.800 388.222,132.800 388.402 C 132.800 388.582,133.520 388.851,134.400 389.000 C 135.280 389.149,136.000 389.434,136.000 389.635 C 136.000 389.836,136.540 390.000,137.200 390.000 C 137.860 390.000,138.400 390.163,138.400 390.362 C 138.400 390.562,139.300 390.849,140.400 391.000 C 141.500 391.151,142.400 391.417,142.400 391.591 C 142.400 391.765,143.390 392.032,144.600 392.183 C 145.810 392.334,146.800 392.625,146.800 392.829 C 146.800 393.033,147.340 393.200,148.000 393.200 C 148.660 393.200,149.200 393.365,149.200 393.566 C 149.200 393.767,150.550 394.058,152.200 394.213 C 153.850 394.367,155.200 394.653,155.200 394.847 C 155.200 395.041,155.920 395.200,156.800 395.200 C 157.680 395.200,158.400 395.364,158.400 395.564 C 158.400 395.764,159.975 396.058,161.900 396.216 C 163.825 396.374,165.496 396.652,165.612 396.834 C 165.729 397.015,167.754 397.288,170.112 397.441 C 172.471 397.593,174.400 397.871,174.400 398.059 C 174.400 398.247,175.915 398.400,177.767 398.400 C 180.020 398.400,181.186 398.558,181.292 398.877 C 181.523 399.570,218.185 399.575,218.877 398.883 C 219.172 398.588,220.578 398.400,222.480 398.400 C 224.196 398.400,225.600 398.247,225.600 398.059 C 225.600 397.871,227.529 397.593,229.888 397.441 C 232.246 397.288,234.271 397.015,234.388 396.834 C 234.504 396.652,236.175 396.374,238.100 396.216 C 240.025 396.058,241.600 395.764,241.600 395.564 C 241.600 395.364,242.320 395.200,243.200 395.200 C 244.080 395.200,244.800 395.041,244.800 394.847 C 244.800 394.653,246.150 394.367,247.800 394.213 C 249.450 394.058,250.800 393.767,250.800 393.566 C 250.800 393.365,251.340 393.200,252.000 393.200 C 252.660 393.200,253.200 393.033,253.200 392.829 C 253.200 392.625,254.190 392.334,255.400 392.183 C 256.610 392.032,257.600 391.765,257.600 391.591 C 257.600 391.417,258.500 391.151,259.600 391.000 C 260.700 390.849,261.600 390.562,261.600 390.362 C 261.600 390.163,262.140 390.000,262.800 390.000 C 263.460 390.000,264.000 389.831,264.000 389.625 C 264.000 389.418,264.810 389.128,265.800 388.979 C 266.790 388.831,267.600 388.561,267.600 388.379 C 267.600 388.198,268.410 387.928,269.400 387.779 C 270.390 387.631,271.200 387.350,271.200 387.155 C 271.200 386.960,271.470 386.800,271.800 386.800 C 272.130 386.800,272.400 386.640,272.400 386.445 C 272.400 386.250,273.210 385.969,274.200 385.821 C 275.190 385.672,276.000 385.382,276.000 385.175 C 276.000 384.969,276.360 384.800,276.800 384.800 C 277.240 384.800,277.600 384.636,277.600 384.435 C 277.600 384.234,278.320 383.949,279.200 383.800 C 280.080 383.651,280.800 383.386,280.800 383.209 C 280.800 383.033,281.430 382.771,282.200 382.626 C 282.970 382.482,283.600 382.192,283.600 381.982 C 283.600 381.772,283.870 381.600,284.200 381.600 C 284.530 381.600,284.800 381.428,284.800 381.218 C 284.800 381.008,285.430 380.718,286.200 380.574 C 286.970 380.429,287.600 380.165,287.600 379.987 C 287.600 379.809,288.140 379.545,288.800 379.400 C 289.460 379.255,290.000 378.971,290.000 378.768 C 290.000 378.566,290.270 378.400,290.600 378.400 C 290.930 378.400,291.200 378.228,291.200 378.018 C 291.200 377.808,291.830 377.518,292.600 377.374 C 293.370 377.229,294.000 376.971,294.000 376.799 C 294.000 376.627,294.484 376.365,295.076 376.217 C 295.668 376.068,296.433 375.624,296.776 375.230 C 297.119 374.837,297.850 374.373,298.400 374.200 C 298.950 374.027,299.670 373.577,300.000 373.200 C 300.330 372.823,301.042 372.375,301.581 372.204 C 302.121 372.034,302.809 371.648,303.110 371.347 C 303.411 371.046,303.914 370.800,304.229 370.800 C 304.543 370.800,304.800 370.620,304.800 370.400 C 304.800 370.180,305.070 370.000,305.400 370.000 C 305.730 370.000,306.000 369.823,306.000 369.608 C 306.000 369.392,306.450 369.102,307.000 368.964 C 307.550 368.826,308.000 368.565,308.000 368.384 C 308.000 368.202,308.405 367.926,308.900 367.770 C 309.395 367.613,310.091 367.151,310.447 366.743 C 310.803 366.334,311.273 366.000,311.491 366.000 C 311.709 366.000,312.226 365.550,312.639 365.000 C 313.052 364.450,313.604 364.000,313.866 364.000 C 314.128 364.000,314.589 363.754,314.890 363.453 C 315.191 363.152,315.825 362.783,316.298 362.632 C 316.772 362.482,317.270 362.008,317.406 361.580 C 317.543 361.151,318.007 360.800,318.440 360.800 C 318.872 360.800,319.326 360.537,319.450 360.215 C 319.573 359.894,320.053 359.510,320.517 359.363 C 320.981 359.216,322.010 358.399,322.803 357.548 C 323.597 356.696,324.539 356.000,324.896 356.000 C 325.254 356.000,325.657 355.649,325.794 355.220 C 325.930 354.792,326.392 354.330,326.820 354.194 C 327.249 354.057,327.600 353.778,327.600 353.573 C 327.600 353.368,327.785 353.200,328.012 353.200 C 328.238 353.200,329.576 352.030,330.985 350.600 C 332.394 349.170,333.732 348.000,333.958 348.000 C 334.184 348.000,335.098 347.235,335.989 346.300 C 336.879 345.365,337.765 344.444,337.956 344.252 C 338.148 344.061,338.845 343.365,339.505 342.705 C 340.165 342.045,340.885 341.325,341.105 341.105 C 341.325 340.885,342.045 340.165,342.705 339.505 C 343.365 338.845,344.061 338.143,344.252 337.945 C 344.444 337.746,345.275 336.970,346.100 336.219 C 346.925 335.468,347.600 334.665,347.600 334.434 C 347.600 334.204,348.680 332.928,350.000 331.600 C 351.320 330.272,352.400 328.931,352.400 328.619 C 352.400 328.308,352.751 327.943,353.180 327.806 C 353.608 327.670,354.067 327.217,354.200 326.800 C 354.333 326.383,354.792 325.930,355.220 325.794 C 355.649 325.657,356.000 325.235,356.000 324.854 C 356.000 324.474,356.532 323.721,357.183 323.181 C 357.834 322.642,358.374 321.966,358.383 321.681 C 358.392 321.395,358.825 320.765,359.344 320.281 C 359.864 319.796,360.413 319.004,360.565 318.520 C 360.717 318.037,361.192 317.530,361.620 317.394 C 362.049 317.257,362.400 316.916,362.400 316.634 C 362.400 316.353,362.760 315.707,363.200 315.200 C 363.640 314.693,364.000 314.075,364.000 313.827 C 364.000 313.579,364.360 313.117,364.800 312.800 C 365.240 312.483,365.600 311.987,365.600 311.699 C 365.600 311.411,365.870 311.071,366.200 310.945 C 366.530 310.818,366.800 310.393,366.800 310.000 C 366.800 309.607,367.070 309.182,367.400 309.055 C 367.730 308.929,368.000 308.549,368.000 308.213 C 368.000 307.876,368.168 307.600,368.373 307.600 C 368.578 307.600,368.874 307.195,369.030 306.700 C 369.187 306.205,369.623 305.530,370.000 305.200 C 370.377 304.870,370.825 304.158,370.996 303.619 C 371.166 303.079,371.552 302.391,371.853 302.090 C 372.154 301.789,372.400 301.286,372.400 300.971 C 372.400 300.657,372.580 300.400,372.800 300.400 C 373.020 300.400,373.200 300.130,373.200 299.800 C 373.200 299.470,373.368 299.200,373.573 299.200 C 373.778 299.200,374.072 298.795,374.227 298.300 C 374.381 297.805,374.628 297.310,374.775 297.200 C 375.146 296.922,376.400 294.175,376.400 293.640 C 376.400 293.398,376.577 293.200,376.792 293.200 C 377.008 293.200,377.298 292.750,377.436 292.200 C 377.574 291.650,377.847 291.200,378.043 291.200 C 378.240 291.200,378.400 290.930,378.400 290.600 C 378.400 290.270,378.566 290.000,378.768 290.000 C 378.971 290.000,379.255 289.460,379.400 288.800 C 379.545 288.140,379.809 287.600,379.987 287.600 C 380.165 287.600,380.429 286.970,380.574 286.200 C 380.718 285.430,381.008 284.800,381.218 284.800 C 381.428 284.800,381.600 284.350,381.600 283.800 C 381.600 283.250,381.766 282.800,381.968 282.800 C 382.171 282.800,382.455 282.260,382.600 281.600 C 382.745 280.940,383.027 280.400,383.227 280.400 C 383.427 280.400,383.706 279.680,383.846 278.800 C 383.987 277.920,384.259 277.200,384.451 277.200 C 384.643 277.200,384.800 276.930,384.800 276.600 C 384.800 276.270,384.960 276.000,385.155 276.000 C 385.350 276.000,385.631 275.190,385.779 274.200 C 385.928 273.210,386.218 272.400,386.425 272.400 C 386.631 272.400,386.800 272.040,386.800 271.600 C 386.800 271.160,386.964 270.800,387.165 270.800 C 387.366 270.800,387.651 270.080,387.800 269.200 C 387.949 268.320,388.218 267.600,388.398 267.600 C 388.578 267.600,388.849 266.700,389.000 265.600 C 389.151 264.500,389.438 263.600,389.638 263.600 C 389.837 263.600,390.000 263.150,390.000 262.600 C 390.000 262.050,390.167 261.600,390.371 261.600 C 390.575 261.600,390.866 260.610,391.017 259.400 C 391.168 258.190,391.443 257.200,391.626 257.200 C 391.810 257.200,392.082 256.120,392.232 254.800 C 392.381 253.480,392.660 252.400,392.852 252.400 C 393.043 252.400,393.200 251.860,393.200 251.200 C 393.200 250.540,393.366 250.000,393.568 250.000 C 393.771 250.000,394.062 248.830,394.215 247.400 C 394.368 245.970,394.652 244.800,394.847 244.800 C 395.041 244.800,395.200 244.080,395.200 243.200 C 395.200 242.320,395.366 241.600,395.570 241.600 C 395.773 241.600,396.067 239.980,396.222 238.000 C 396.376 236.020,396.644 234.400,396.817 234.400 C 396.989 234.400,397.259 232.240,397.416 229.600 C 397.574 226.960,397.860 224.800,398.051 224.800 C 398.243 224.800,398.400 223.375,398.400 221.633 C 398.400 219.543,398.562 218.413,398.875 218.308 C 399.561 218.080,399.561 181.920,398.875 181.692 C 398.562 181.587,398.400 180.457,398.400 178.367 C 398.400 176.625,398.243 175.200,398.051 175.200 C 397.860 175.200,397.574 173.040,397.416 170.400 C 397.259 167.760,396.989 165.600,396.817 165.600 C 396.644 165.600,396.376 163.980,396.222 162.000 C 396.067 160.020,395.773 158.400,395.570 158.400 C 395.366 158.400,395.200 157.680,395.200 156.800 C 395.200 155.920,395.034 155.200,394.832 155.200 C 394.629 155.200,394.338 154.030,394.185 152.600 C 394.032 151.170,393.748 150.000,393.553 150.000 C 393.359 150.000,393.200 149.460,393.200 148.800 C 393.200 148.140,393.043 147.600,392.852 147.600 C 392.660 147.600,392.381 146.520,392.232 145.200 C 392.082 143.880,391.810 142.800,391.626 142.800 C 391.443 142.800,391.168 141.810,391.017 140.600 C 390.866 139.390,390.575 138.400,390.371 138.400 C 390.167 138.400,390.000 137.950,390.000 137.400 C 390.000 136.850,389.840 136.400,389.645 136.400 C 389.450 136.400,389.169 135.590,389.021 134.600 C 388.872 133.610,388.582 132.800,388.375 132.800 C 388.169 132.800,387.999 132.395,387.998 131.900 C 387.996 131.405,387.726 130.484,387.398 129.854 C 387.069 129.224,386.800 128.459,386.800 128.154 C 386.800 127.849,386.636 127.600,386.435 127.600 C 386.234 127.600,385.949 126.880,385.800 126.000 C 385.651 125.120,385.366 124.400,385.165 124.400 C 384.964 124.400,384.800 124.040,384.800 123.600 C 384.800 123.160,384.636 122.800,384.435 122.800 C 384.234 122.800,383.949 122.080,383.800 121.200 C 383.651 120.320,383.380 119.600,383.197 119.600 C 383.013 119.600,382.745 119.060,382.600 118.400 C 382.455 117.740,382.171 117.200,381.968 117.200 C 381.766 117.200,381.600 116.750,381.600 116.200 C 381.600 115.650,381.434 115.200,381.232 115.200 C 381.029 115.200,380.745 114.660,380.600 114.000 C 380.455 113.340,380.191 112.800,380.013 112.800 C 379.835 112.800,379.571 112.170,379.426 111.400 C 379.282 110.630,378.992 110.000,378.782 110.000 C 378.572 110.000,378.400 109.730,378.400 109.400 C 378.400 109.070,378.240 108.800,378.043 108.800 C 377.847 108.800,377.574 108.350,377.436 107.800 C 377.298 107.250,377.022 106.800,376.824 106.800 C 376.626 106.800,376.345 106.260,376.200 105.600 C 376.055 104.940,375.771 104.400,375.568 104.400 C 375.366 104.400,375.200 104.040,375.200 103.600 C 375.200 103.160,375.020 102.800,374.800 102.800 C 374.580 102.800,374.400 102.524,374.400 102.187 C 374.400 101.851,374.130 101.471,373.800 101.345 C 373.470 101.218,373.200 100.774,373.200 100.357 C 373.200 99.941,373.040 99.600,372.843 99.600 C 372.647 99.600,372.374 99.150,372.236 98.600 C 372.098 98.050,371.822 97.600,371.624 97.600 C 371.426 97.600,371.153 97.095,371.017 96.478 C 370.881 95.860,370.417 95.101,369.985 94.789 C 369.553 94.478,369.200 93.987,369.200 93.699 C 369.200 93.411,368.930 93.071,368.600 92.945 C 368.270 92.818,368.000 92.368,368.000 91.945 C 368.000 91.521,367.730 91.071,367.400 90.945 C 367.070 90.818,366.800 90.393,366.800 90.000 C 366.800 89.607,366.530 89.182,366.200 89.055 C 365.870 88.929,365.600 88.589,365.600 88.301 C 365.600 88.013,365.240 87.517,364.800 87.200 C 364.360 86.883,364.000 86.391,364.000 86.108 C 364.000 85.824,363.640 85.284,363.200 84.907 C 362.760 84.530,362.400 83.914,362.400 83.538 C 362.400 83.162,362.049 82.743,361.620 82.606 C 361.192 82.470,360.717 81.963,360.565 81.480 C 360.413 80.996,359.864 80.204,359.344 79.719 C 358.825 79.235,358.392 78.605,358.383 78.319 C 358.374 78.034,357.834 77.358,357.183 76.819 C 356.532 76.279,356.000 75.514,356.000 75.119 C 356.000 74.723,355.845 74.400,355.656 74.400 C 355.151 74.400,352.400 71.725,352.400 71.234 C 352.400 71.004,351.320 69.728,350.000 68.400 C 348.680 67.072,347.600 65.731,347.600 65.419 C 347.600 65.108,347.249 64.743,346.820 64.606 C 346.392 64.470,345.930 64.008,345.794 63.580 C 345.657 63.151,345.392 62.800,345.204 62.800 C 345.016 62.800,344.353 62.266,343.731 61.613 C 343.109 60.960,342.380 60.195,342.111 59.913 C 341.842 59.631,341.416 59.196,341.163 58.948 C 340.911 58.699,340.165 57.955,339.505 57.295 C 338.845 56.635,338.125 55.915,337.905 55.695 C 337.685 55.475,336.972 54.734,336.322 54.048 C 335.671 53.361,334.963 52.800,334.749 52.800 C 334.535 52.800,333.201 51.630,331.785 50.200 C 330.369 48.770,329.030 47.600,328.810 47.600 C 328.590 47.600,327.733 46.880,326.905 46.001 C 326.077 45.121,325.085 44.401,324.700 44.401 C 324.315 44.400,324.000 44.246,324.000 44.058 C 324.000 43.479,322.071 41.600,321.475 41.600 C 321.165 41.600,320.582 41.161,320.179 40.624 C 319.776 40.087,319.043 39.547,318.550 39.423 C 318.057 39.299,317.539 38.839,317.400 38.399 C 317.260 37.960,316.916 37.600,316.634 37.600 C 316.353 37.600,315.707 37.240,315.200 36.800 C 314.693 36.360,314.075 36.000,313.827 36.000 C 313.579 36.000,313.117 35.640,312.800 35.200 C 312.483 34.760,311.987 34.400,311.699 34.400 C 311.411 34.400,311.071 34.130,310.945 33.800 C 310.818 33.470,310.368 33.200,309.945 33.200 C 309.521 33.200,309.071 32.930,308.945 32.600 C 308.818 32.270,308.464 32.000,308.157 32.000 C 307.851 32.000,307.600 31.832,307.600 31.627 C 307.600 31.422,307.195 31.126,306.700 30.970 C 306.205 30.813,305.519 30.363,305.176 29.970 C 304.833 29.576,304.068 29.132,303.476 28.983 C 302.884 28.835,302.400 28.565,302.400 28.384 C 302.400 28.202,301.995 27.928,301.500 27.773 C 301.005 27.619,300.510 27.381,300.400 27.246 C 300.079 26.851,298.660 25.997,297.900 25.742 C 297.515 25.612,297.200 25.356,297.200 25.171 C 297.200 24.987,296.570 24.718,295.800 24.574 C 295.030 24.429,294.400 24.151,294.400 23.955 C 294.400 23.760,294.130 23.600,293.800 23.600 C 293.470 23.600,293.200 23.423,293.200 23.208 C 293.200 22.992,292.750 22.702,292.200 22.564 C 291.650 22.426,291.200 22.167,291.200 21.988 C 291.200 21.810,290.660 21.545,290.000 21.400 C 289.340 21.255,288.800 20.971,288.800 20.768 C 288.800 20.566,288.530 20.400,288.200 20.400 C 287.870 20.400,287.600 20.240,287.600 20.045 C 287.600 19.849,286.970 19.571,286.200 19.426 C 285.430 19.282,284.800 18.992,284.800 18.782 C 284.800 18.572,284.350 18.400,283.800 18.400 C 283.250 18.400,282.800 18.234,282.800 18.032 C 282.800 17.829,282.260 17.545,281.600 17.400 C 280.940 17.255,280.400 16.973,280.400 16.773 C 280.400 16.573,279.680 16.294,278.800 16.154 C 277.920 16.013,277.200 15.741,277.200 15.549 C 277.200 15.357,276.930 15.200,276.600 15.200 C 276.270 15.200,276.000 15.040,276.000 14.845 C 276.000 14.650,275.190 14.369,274.200 14.221 C 273.210 14.072,272.400 13.798,272.400 13.611 C 272.400 13.423,271.680 13.149,270.800 13.000 C 269.920 12.851,269.200 12.566,269.200 12.365 C 269.200 12.164,268.840 12.000,268.400 12.000 C 267.960 12.000,267.600 11.837,267.600 11.638 C 267.600 11.438,266.700 11.151,265.600 11.000 C 264.500 10.849,263.600 10.562,263.600 10.362 C 263.600 10.163,263.150 10.000,262.600 10.000 C 262.050 10.000,261.600 9.833,261.600 9.629 C 261.600 9.425,260.610 9.134,259.400 8.983 C 258.190 8.832,257.200 8.557,257.200 8.374 C 257.200 8.190,256.120 7.918,254.800 7.768 C 253.480 7.619,252.400 7.340,252.400 7.148 C 252.400 6.957,251.860 6.800,251.200 6.800 C 250.540 6.800,250.000 6.634,250.000 6.432 C 250.000 6.229,248.830 5.938,247.400 5.785 C 245.970 5.632,244.800 5.367,244.800 5.195 C 244.800 5.024,243.360 4.756,241.600 4.600 C 239.840 4.444,238.400 4.155,238.400 3.958 C 238.400 3.761,237.500 3.600,236.400 3.600 C 235.300 3.600,234.400 3.438,234.400 3.239 C 234.400 3.041,232.285 2.748,229.700 2.589 C 227.115 2.429,224.900 2.143,224.778 1.953 C 224.657 1.762,220.562 1.486,215.678 1.340 C 210.795 1.193,206.800 0.921,206.800 0.736 C 206.800 0.551,203.740 0.400,200.000 0.400 C 196.260 0.400,193.200 0.551,193.200 0.736 M137.796 123.772 C 169.124 130.157,190.197 160.293,190.542 199.200 L 190.600 205.800 135.200 206.000 L 79.800 206.200 79.914 210.800 C 80.618 239.248,97.573 255.803,126.000 255.799 C 145.868 255.795,159.427 247.223,163.800 231.900 L 164.457 229.600 176.455 229.600 C 187.686 229.600,188.442 229.645,188.270 230.300 C 188.168 230.685,187.868 231.900,187.602 233.000 C 180.485 262.434,154.304 279.332,119.200 277.148 C 81.250 274.787,59.006 251.049,54.593 208.200 C 50.125 164.821,75.685 128.249,114.000 123.199 C 118.256 122.638,134.104 123.019,137.796 123.772 M241.061 134.200 C 245.277 140.360,250.048 147.340,251.663 149.710 C 253.278 152.081,255.559 155.411,256.731 157.110 C 257.904 158.810,261.336 163.789,264.359 168.176 C 267.382 172.562,270.052 176.217,270.294 176.298 C 270.535 176.378,277.887 166.399,286.631 154.122 C 295.375 141.845,303.878 129.910,305.526 127.600 C 307.174 125.290,308.720 123.268,308.961 123.106 C 309.684 122.622,338.800 122.733,338.800 123.221 C 338.800 123.452,333.185 131.147,326.323 140.321 C 293.394 184.342,286.746 193.275,286.565 193.748 C 286.457 194.028,288.746 197.575,291.652 201.629 C 305.194 220.525,308.222 224.738,309.593 226.600 C 310.403 227.700,314.280 233.100,318.208 238.600 C 324.556 247.487,338.410 266.814,340.196 269.274 C 344.613 275.360,345.596 276.956,345.115 277.261 C 344.216 277.831,314.251 277.679,313.528 277.100 C 312.892 276.591,311.677 274.808,291.380 244.600 C 272.084 215.881,270.927 214.203,270.353 214.112 C 270.042 214.063,268.631 215.814,267.131 218.112 C 265.663 220.360,261.067 227.240,256.918 233.400 C 252.768 239.560,244.542 251.800,238.636 260.600 C 232.730 269.400,227.617 276.825,227.273 277.100 C 226.555 277.674,198.186 277.833,197.297 277.268 C 196.937 277.040,198.999 273.871,204.516 266.174 C 211.236 256.800,250.068 202.334,253.321 197.721 L 254.505 196.043 250.324 190.321 C 244.846 182.825,226.756 158.211,222.601 152.600 C 220.809 150.180,216.579 144.420,213.200 139.800 C 209.821 135.180,205.739 129.631,204.128 127.468 C 202.518 125.305,201.200 123.368,201.200 123.163 C 201.200 122.938,207.548 122.832,217.297 122.895 L 233.395 123.000 241.061 134.200 M117.600 144.181 C 117.270 144.262,115.650 144.546,114.000 144.812 C 96.141 147.695,80.038 166.306,80.004 184.102 L 80.000 186.004 122.300 185.902 L 164.600 185.800 164.487 183.200 C 163.743 166.131,150.219 149.897,133.000 145.403 C 129.282 144.432,119.687 143.671,117.600 144.181 " stroke="none" fill="white" fill-rule="evenodd">
</path>
</g>
</svg>